<?xml version="1.0" encoding="UTF-8"?>
<svg width="50px" height="48px" viewBox="0 0 50 48" version="1.1" xmlns="http://www.w3.org/2000/svg" xmlns:xlink="http://www.w3.org/1999/xlink">
    <!-- Generator: Sketch 60.1 (88133) - https://sketch.com -->
    <title>couching-ico</title>
    <desc>Created with Sketch.</desc>
    <defs>
        <polygon id="path-1" points="0 0 50 0 50 48 0 48"></polygon>
    </defs>
    <g id="✏️-UI-Velocity-Club" stroke="none" stroke-width="1" fill="none" fill-rule="evenodd">
        <g id="02-Velocity-Club-product_Desktop" transform="translate(-394.000000, -3997.000000)">
            <g id="couching-ico" transform="translate(394.000000, 3996.000000)">
                <rect id="bg" x="0" y="0" width="49" height="49"></rect>
                <g id="Group-3" transform="translate(0.000000, 1.000000)">
                    <mask id="mask-2" fill="white">
                        <use xlink:href="#path-1"></use>
                    </mask>
                    <g id="bg"></g>
                    <path d="M37.9062348,46.4517066 L37.9062348,44.9033163 L47.9037474,44.9033163 L48.2262478,46.4517066 L37.9062348,46.4517066 Z M36.2937328,46.5291261 L13.7187045,46.5291261 L13.7187045,36.3871701 L12.1062025,36.3871701 L12.1062025,43.3549261 L2.35056526,43.3549261 L3.64056687,36.4645896 C4.28556768,33.0581312 7.02682112,30.3484483 10.5743256,29.6515759 L16.1374575,28.4902832 L16.1374575,30.9678044 C16.1374575,31.1226434 16.2180826,31.2773856 16.2987077,31.4323214 L21.1362138,37.6258823 C21.0555887,37.9355604 20.9749636,38.3226579 20.9749636,38.7097555 C20.9749636,40.567727 22.3455903,42.1161172 24.1999677,42.5032147 L24.1999677,44.1291212 C24.1999677,44.5936383 24.5224681,44.9033163 25.0062187,44.9033163 L28.2312227,44.9033163 C28.7149733,44.9033163 29.0374737,44.5936383 29.0374737,44.1291212 L29.0374737,38.7097555 C29.0374737,38.3226579 28.9568486,37.9355604 28.8762235,37.6258823 L33.7137296,31.4323214 C33.7943547,31.2773856 33.8749798,31.1226434 33.8749798,30.9678044 L33.8749798,28.5677028 L39.4381118,29.7289954 C42.9856162,30.425771 45.7268696,33.1354539 46.3718705,36.5420092 L47.6618721,43.4323456 L37.9062348,43.4323456 L37.9062348,36.4645896 L36.2937328,36.4645896 L36.2937328,46.5291261 Z M12.1062025,46.4517066 L1.78618955,46.4517066 L2.10868995,44.9033163 L12.1062025,44.9033163 L12.1062025,46.4517066 Z M25.0062187,41.0323408 C23.6355919,41.0323408 22.5874656,40.0258871 22.5874656,38.7097555 C22.5874656,37.393527 23.6355919,36.3871701 25.0062187,36.3871701 C26.3768454,36.3871701 27.4249717,37.393527 27.4249717,38.7097555 L27.4249717,43.3549261 L25.8124697,43.3549261 L25.8124697,41.8065359 C25.8124697,41.3419221 25.4899693,41.0323408 25.0062187,41.0323408 L25.0062187,41.0323408 Z M17.7499596,28.2581215 L19.1205863,27.9484434 L20.3299628,29.1871556 C21.5393393,30.3484483 23.1518413,30.9677076 24.9255936,30.9677076 L25.0868438,30.9677076 C26.7799709,30.9677076 28.473098,30.3484483 29.6824745,29.1871556 L30.9724761,27.9484434 L32.3431029,28.2581215 L32.3431029,30.7355458 L28.0699725,36.1549116 C26.6187207,34.5291019 24.1193426,34.3741661 22.4262154,35.767814 C22.2649652,35.9225563 22.1843401,36.0000726 22.0230899,36.1549116 L17.7499596,30.7355458 L17.7499596,28.2581215 Z M29.0374737,22.3742387 L29.0374737,27.5613459 L28.473098,28.1031857 C27.5862219,28.9548003 26.2962203,29.4968337 25.0868438,29.4968337 L24.9255936,29.4968337 C23.6355919,29.4968337 22.4262154,29.0323166 21.5393393,28.1031857 L20.9749636,27.5613459 L20.9749636,22.3742387 C22.2649652,22.9160785 23.6355919,23.2258533 25.0062187,23.2258533 C26.3768454,23.2258533 27.7474721,22.9160785 29.0374737,22.3742387 L29.0374737,22.3742387 Z M16.9437086,13.935512 L16.9437086,11.1484096 L18.7980859,12.9290583 C18.9593361,13.0838973 19.1205863,13.1613169 19.3624616,13.1613169 L30.6499757,13.1613169 C30.891851,13.1613169 31.0531012,13.0838973 31.2143514,12.9290583 L33.0687288,11.1484096 L33.0687288,13.935512 C33.0687288,18.1935851 29.4405992,21.6774631 25.0062187,21.6774631 C20.5718381,21.6774631 16.9437086,18.1935851 16.9437086,13.935512 L16.9437086,13.935512 Z M32.7462284,9.29034131 L30.3274753,11.6129266 L19.684962,11.6129266 L17.266209,9.29034131 L32.7462284,9.29034131 Z M25.0062187,1.54839022 C28.8762235,1.54839022 32.1012276,4.1031373 32.9074786,7.74195109 L17.1049588,7.74195109 C17.9112098,4.1031373 21.1362138,1.54839022 25.0062187,1.54839022 L25.0062187,1.54839022 Z M47.9037474,36.2322343 C47.1781215,32.2065165 43.9531174,29.0323166 39.7606122,28.1806052 L30.8112259,26.3226337 L30.6499757,26.3226337 L30.6499757,21.4452045 C33.1493539,19.7419753 34.6812308,16.8773566 34.6812308,13.935512 L34.6812308,9.29034131 C34.6812308,4.18065359 30.3274753,0 25.0062187,0 C19.684962,0 15.3312065,4.18065359 15.3312065,9.29034131 L15.3312065,13.935512 C15.3312065,16.9548729 16.8630835,19.7419753 19.3624616,21.4452045 L19.3624616,26.3226337 L19.2012114,26.3226337 L10.2518252,28.1031857 C6.05931991,28.9548003 2.83431586,32.129097 2.10868995,36.1549116 L0.0124373248,47.0709659 C-0.0681877763,47.4580634 0.254312628,47.9225805 0.657438133,48 L0.818688336,48 L49.193749,48 C49.6774996,48 50,47.6904187 50,47.2258049 L50,47.0709659 L47.9037474,36.2322343 Z" id="Fill-1" fill="#E11B22" mask="url(#mask-2)"></path>
                </g>
            </g>
        </g>
    </g>
</svg>