<?xml version="1.0" encoding="UTF-8"?>
<svg width="49px" height="49px" viewBox="0 0 49 49" version="1.1" xmlns="http://www.w3.org/2000/svg" xmlns:xlink="http://www.w3.org/1999/xlink">
    <!-- Generator: Sketch 60.1 (88133) - https://sketch.com -->
    <title>financialplanning-ico</title>
    <desc>Created with Sketch.</desc>
    <g id="✏️-UI-Velocity-Club" stroke="none" stroke-width="1" fill="none" fill-rule="evenodd">
        <g id="02-Velocity-Club-product_Desktop" transform="translate(-1200.000000, -4161.000000)">
            <g id="financialplanning-ico" transform="translate(1200.000000, 4161.000000)">
                <rect id="bg" x="0" y="0" width="49" height="49"></rect>
                <path d="M48,47.1538462 C48,47.6211346 47.6144375,48 47.1388889,48 L25.6111111,48 L25.6111111,40.1479038 C25.6111111,39.8272115 25.426941,39.5343365 25.1351319,39.3909135 C24.8433229,39.2475962 24.4943576,39.2785865 24.2332257,39.4706635 C23.3830938,40.0776731 22.3563264,40.3978365 21.3055556,40.3846154 C18.9315799,40.3846154 17,38.8666154 17,37 C17,35.1333846 18.9315799,33.6153846 21.3055556,33.6153846 C22.3558958,33.6013173 23.3830938,33.9215865 24.2332257,34.5276442 C24.4943576,34.7197212 24.8433229,34.7507115 25.1351319,34.6073942 C25.426941,34.4639712 25.6111111,34.1710962 25.6111111,33.8505096 L25.6111111,26 L32.1358576,26 C31.8054063,26.8069135 31.6367361,27.6687212 31.6388889,28.5384615 C31.6388889,31.8036635 33.9560312,34.4615385 36.8055556,34.4615385 C39.6550799,34.4615385 41.9722222,31.8036635 41.9722222,28.5384615 C41.974375,27.6687212 41.8057049,26.8069135 41.4752535,26 L48,26 L48,47.1538462 Z M2,47.1388889 L2,25.6111111 L9.85209615,25.6111111 C10.1727885,25.6111111 10.4656635,25.426941 10.6090865,25.1351319 C10.7524038,24.8433229 10.7214135,24.4943576 10.5293365,24.2332257 C9.92190385,23.3835243 9.60131731,22.3563264 9.61538462,21.3055556 C9.61538462,18.9315799 11.1333846,17 13,17 C14.8666154,17 16.3846154,18.9315799 16.3846154,21.3055556 C16.3991058,22.3563264 16.0792596,23.3830938 15.4723558,24.2332257 C15.2802788,24.4943576 15.2492885,24.8433229 15.3926058,25.1351319 C15.5360288,25.426941 15.8289038,25.6111111 16.1494904,25.6111111 L24,25.6111111 L24,32.1358576 C23.1930865,31.8054063 22.3312788,31.6367361 21.4615385,31.6388889 C18.1954904,31.6388889 15.5384615,33.9560312 15.5384615,36.8055556 C15.5384615,39.6550799 18.1954904,41.9722222 21.4615385,41.9722222 C22.3312788,41.974375 23.1930865,41.8057049 24,41.4752535 L24,48 L2.84615385,48 C2.37886538,48 2,47.6144375 2,47.1388889 L2,47.1388889 Z M2,2.84615385 C2,2.37886538 2.3855625,2 2.86111111,2 L24.3888889,2 L24.3888889,9.85209615 C24.3888889,10.1727885 24.573059,10.4656635 24.8648681,10.6090865 C25.1566771,10.7524038 25.5056424,10.7214135 25.7667743,10.5293365 C26.6169062,9.92232692 27.6436736,9.60216346 28.6944444,9.61538462 C31.0684201,9.61538462 33,11.1333846 33,13 C33,14.8666154 31.0684201,16.3846154 28.6944444,16.3846154 C27.6441042,16.3986827 26.6169062,16.0784135 25.7667743,15.4723558 C25.5056424,15.2802788 25.1566771,15.2492885 24.8648681,15.3926058 C24.573059,15.5360288 24.3888889,15.8289038 24.3888889,16.1494904 L24.3888889,24 L17.8641424,24 C18.1945937,23.1930865 18.3632639,22.3312788 18.3611111,21.4615385 C18.3611111,18.1963365 16.0439688,15.5384615 13.1944444,15.5384615 C10.3449201,15.5384615 8.02777778,18.1963365 8.02777778,21.4615385 C8.025625,22.3312788 8.19429514,23.1930865 8.52474653,24 L2,24 L2,2.84615385 Z M48,2.86111111 L48,24.3888889 L40.1479038,24.3888889 C39.8272115,24.3888889 39.5343365,24.573059 39.3909135,24.8648681 C39.2475962,25.1566771 39.2785865,25.5056424 39.4706635,25.7667743 C40.0780962,26.6164757 40.3986827,27.6436736 40.3846154,28.6944444 C40.3846154,31.0684201 38.8666154,33 37,33 C35.1333846,33 33.6153846,31.0684201 33.6153846,28.6944444 C33.6008942,27.6436736 33.9207404,26.6169062 34.5276442,25.7667743 C34.7197212,25.5056424 34.7507115,25.1566771 34.6073942,24.8648681 C34.4639712,24.573059 34.1710962,24.3888889 33.8505096,24.3888889 L26,24.3888889 L26,17.8641424 C26.8069135,18.1945937 27.6687212,18.3632639 28.5384615,18.3611111 C31.8045096,18.3611111 34.4615385,16.0439688 34.4615385,13.1944444 C34.4615385,10.3449201 31.8045096,8.02777778 28.5384615,8.02777778 C27.6687212,8.025625 26.8069135,8.19429514 26,8.52474653 L26,2 L47.1538462,2 C47.6211346,2 48,2.3855625 48,2.86111111 L48,2.86111111 Z M2.53448276,0 C1.13481466,0 0,1.13481466 0,2.53448276 L0,46.4655172 C0,47.8651853 1.13481466,49 2.53448276,49 L46.4655172,49 C47.8651853,49 49,47.8651853 49,46.4655172 L49,2.53448276 C49,1.13481466 47.8651853,0 46.4655172,0 L2.53448276,0 Z" id="Fill-1" fill="#E01F26"></path>
            </g>
        </g>
    </g>
</svg>