<?xml version="1.0" encoding="UTF-8"?>
<svg width="46px" height="49px" viewBox="0 0 46 49" version="1.1" xmlns="http://www.w3.org/2000/svg" xmlns:xlink="http://www.w3.org/1999/xlink">
    <!-- Generator: Sketch 60.1 (88133) - https://sketch.com -->
    <title>investments-ico</title>
    <desc>Created with Sketch.</desc>
    <g id="✏️-UI-Velocity-Club" stroke="none" stroke-width="1" fill="none" fill-rule="evenodd">
        <g id="02-Velocity-Club-product_Desktop" transform="translate(-1201.000000, -3996.000000)">
            <g id="investments-ico" transform="translate(1200.000000, 3996.000000)">
                <rect id="bg" x="0" y="0" width="49" height="49"></rect>
                <g id="Group-15" transform="translate(1.000000, 0.000000)" fill="#E01F26">
                    <path d="M14.6715317,9.75237143 L22.9967024,1.62541905 L31.3302634,9.75237143 L28.8244098,9.75237143 C28.3646049,9.75237143 27.991922,10.1162762 27.991922,10.5650381 L27.991922,19.5047524 C27.991922,19.9536095 27.6191415,20.3175143 27.1594341,20.3175143 L18.8341659,20.3175143 C18.374361,20.3175143 18.0015805,19.9536095 18.0015805,19.5047524 L18.0015805,10.5650381 C18.0015805,10.1162762 17.6288976,9.75237143 17.1690927,9.75237143 L14.6715317,9.75237143 Z M18.8341659,21.9428476 L27.1594341,21.9428476 C28.5386537,21.9428476 29.6568976,20.8513238 29.6568976,19.5047524 L29.6568976,11.3778 L31.3219707,11.3778 C31.9953366,11.3776095 32.6022634,10.9816095 32.859922,10.3743714 C33.1175805,9.7670381 32.975239,9.06808571 32.4991415,8.60322857 L24.1739707,0.47627619 C23.5237268,-0.158295238 22.4697756,-0.158295238 21.8196293,0.47627619 L13.494361,8.60322857 C13.018361,9.06808571 12.875922,9.7670381 13.1335805,10.3743714 C13.391239,10.9816095 13.9982634,11.3776095 14.6715317,11.3778 L16.3366049,11.3778 L16.3366049,19.5047524 C16.3366049,20.8513238 17.4547512,21.9428476 18.8341659,21.9428476 L18.8341659,21.9428476 Z" id="Fill-1"></path>
                    <path d="M13,24.2000312 L13,13.7999687 C13,13.3582187 12.5522353,13 11.9999414,13 C11.4476475,13 11,13.3582187 11,13.7999687 L11,24.2000312 C11,24.641875 11.4476475,25 11.9999414,25 C12.5522353,25 13,24.641875 13,24.2000312" id="Fill-4"></path>
                    <path d="M8,28.2000313 L8,17.7999688 C8,17.3582188 7.55235249,17 7.00005859,17 C6.44776469,17 6,17.3582188 6,17.7999688 L6,28.2000313 C6,28.641875 6.44776469,29 7.00005859,29 C7.55235249,29 8,28.641875 8,28.2000313" id="Fill-6"></path>
                    <path d="M35,24.2000312 L35,13.7999687 C35,13.3582187 34.5523263,13 34,13 C33.4476737,13 33,13.3582187 33,13.7999687 L33,24.2000312 C33,24.641875 33.4476737,25 34,25 C34.5523263,25 35,24.641875 35,24.2000312" id="Fill-8"></path>
                    <path d="M40,28.2000313 L40,17.7999688 C40,17.3582188 39.5523263,17 39,17 C38.4476737,17 38,17.3582188 38,17.7999688 L38,28.2000313 C38,28.641875 38.4476737,29 39,29 C39.5523263,29 40,28.641875 40,28.2000313" id="Fill-10"></path>
                    <g id="Group-14" transform="translate(0.000000, 24.000000)">
                        <path d="M11.101956,9.68743453 L11.101956,10.8687799 C11.101956,13.4652144 14.7442267,15.136589 19.053358,15.7686976 C16.742764,16.5243658 14.3241863,16.8913967 11.8949216,16.8550116 C9.07851354,16.9324585 6.27706707,16.4158654 3.67077212,15.3384372 C2.34569333,14.6999682 1.58599636,13.9464513 1.58599636,13.2631791 C1.58599636,11.6454 5.60565293,9.84794036 11.101956,9.68743453 M14.0923277,8.79352177 C16.9112448,9.97346416 19.9449216,10.5444945 22.9969055,10.4696666 C26.0489822,10.5444945 29.0825661,9.97346416 31.9014832,8.79352177 C32.3958671,8.56295832 32.8662752,8.28347613 33.3059236,7.95937781 L33.3059236,10.8687799 C33.3059236,12.5640994 28.8968004,14.4604254 22.9969055,14.4604254 C17.0970105,14.4604254 12.6879802,12.5640994 12.6879802,10.8687799 L12.6879802,7.95937781 C13.1275358,8.28347613 13.5979438,8.56295832 14.0923277,8.79352177 M44.4078145,13.2631791 C44.4078145,13.9464513 43.6481176,14.6999682 42.3230388,15.3384372 C39.7167438,16.4158654 36.9152974,16.9324585 34.0988893,16.8550116 C31.6693459,16.8913967 29.2505822,16.5243658 26.9397095,15.7686976 C31.2488408,15.136589 34.8918549,13.4659627 34.8918549,10.8687799 L34.8918549,9.68743453 C40.388158,9.84794036 44.4078145,11.6454 44.4078145,13.2631791 M34.0988893,22.44213 C28.1989943,22.44213 23.7898711,20.5457105 23.7898711,18.850391 L23.7898711,16.0417259 L23.927964,16.0417259 C24.3295115,16.3233594 24.7539196,16.5705721 25.1967277,16.7807449 C28.0152731,17.9584425 31.0480206,18.5276021 34.0988893,18.4512777 C37.1509661,18.5261056 40.1845499,17.9550752 43.0033741,16.7751328 C43.497758,16.5445694 43.968259,16.2650872 44.4078145,15.9410824 L44.4078145,18.850391 C44.4078145,20.5457105 39.9987842,22.44213 34.0988893,22.44213 M11.8949216,22.44213 C5.99502667,22.44213 1.58599636,20.5457105 1.58599636,18.850391 L1.58599636,15.9410824 C2.02564485,16.2650872 2.49605293,16.5445694 2.99034384,16.7751328 C5.80926101,17.9550752 8.84293778,18.5261056 11.8949216,18.4512777 C14.948857,18.527228 17.9845782,17.9561041 20.8050752,16.7751328 C21.2450954,16.5659889 21.6669014,16.3198051 22.0659398,16.0392005 L22.2039398,16.0392005 L22.2039398,18.850391 C22.2039398,20.5457105 17.7948166,22.44213 11.8949216,22.44213 M-2.78787879e-05,13.2631791 L-2.78787879e-05,18.850391 C-2.78787879e-05,22.2202653 6.12903071,24.0384896 11.8949216,24.0384896 C16.4261539,24.0384896 21.1682428,22.9106461 22.9969055,20.7947003 C24.8255681,22.9106461 29.567657,24.0384896 34.0988893,24.0384896 C39.8647802,24.0384896 45.9938388,22.2202653 45.9938388,18.850391 L45.9938388,13.2631791 C45.9938388,10.0474502 40.4135277,8.24914883 34.8918549,8.09032662 L34.8918549,5.28156802 C34.8918549,1.91169373 28.7627964,0.0934633756 22.9969055,0.0934633756 C21.4448004,0.0893538611 19.8952974,0.218619051 18.3650307,0.479861943 C17.9333741,0.555157513 17.6441782,0.968488102 17.7191721,1.40295757 C17.7939802,1.83733351 18.2046347,2.12841402 18.6361984,2.05302492 C20.0768812,1.80702821 21.5356853,1.68552641 22.9969055,1.68982902 C28.8968004,1.68982902 33.3059236,3.5862485 33.3059236,5.28156802 C33.3059236,5.96484024 32.5462267,6.71835715 31.2210549,7.35682617 C28.61476,8.43425434 25.8134065,8.95075389 22.9969055,8.87330702 C20.1804044,8.95075389 17.378958,8.43425434 14.772756,7.35682617 C13.4476772,6.71835715 12.6878873,5.96484024 12.6878873,5.28156802 C12.6878873,4.56331375 13.5514792,3.74834443 14.9979236,3.10660169 C15.2626792,2.9952952 15.4470509,2.74864374 15.4800408,2.4617723 C15.5129378,2.17499439 15.3893418,1.89251908 15.1568327,1.7233145 C14.9243236,1.55410992 14.6191438,1.5245529 14.358756,1.64596116 C12.2580893,2.57663312 11.101956,3.86806907 11.101956,5.28156802 L11.101956,8.09032662 C5.58037616,8.24914883 -2.78787879e-05,10.0474502 -2.78787879e-05,13.2631791" id="Fill-12"></path>
                    </g>
                </g>
            </g>
        </g>
    </g>
</svg>