<?xml version="1.0" encoding="UTF-8"?>
<svg width="49px" height="49px" viewBox="0 0 49 49" version="1.1" xmlns="http://www.w3.org/2000/svg" xmlns:xlink="http://www.w3.org/1999/xlink">
    <!-- Generator: Sketch 60.1 (88133) - https://sketch.com -->
    <title>retirement-ico</title>
    <desc>Created with Sketch.</desc>
    <g id="✏️-UI-Velocity-Club" stroke="none" stroke-width="1" fill="none" fill-rule="evenodd">
        <g id="02-Velocity-Club-product_Desktop" transform="translate(-797.000000, -4161.000000)">
            <g id="retirement-ico" transform="translate(797.000000, 4161.000000)">
                <rect id="bg" x="0" y="0" width="49" height="49"></rect>
                <g id="Group-6" fill="#E01F26">
                    <path d="M25,43 C24.448,43 24,43.448 24,44 C24,44.5455 24.4414,45 25,45 C25.5588,45 26,44.5453 26,44 C26,43.448 25.552,43 25,43" id="Fill-1"></path>
                    <g id="Group-5">
                        <path d="M14.767442,28.7109375 L16.8175943,28.7109375 L12.3983111,41.2274707 C11.79586,41.0168281 11.1976197,40.7912559 10.6051217,40.5521895 L14.767442,28.7109375 Z M6.6275084,1.9140625 L8.62885215,1.9140625 C9.89663145,1.9140625 11.0300436,2.76419336 11.3851021,3.98125 C11.5845475,4.66495313 17.0146471,23.2826563 17.2804146,24.19375 C17.3994693,24.6021152 17.7737643,24.8828125 18.1991646,24.8828125 L31.7727389,24.8828125 L31.7727389,26.796875 L14.4590865,26.796875 C14.0292838,26.796875 13.6568072,26.516082 13.538901,26.1023574 L6.6275084,1.9140625 Z M33.0044381,13.3984375 C34.5944498,13.3984375 35.8879732,14.6864102 35.8879732,16.2695313 L35.8879732,26.796875 L33.6868014,26.796875 L33.6868014,16.2695313 C33.6868014,15.7410586 33.2583385,15.3125 32.7297701,15.3125 L16.6838971,15.3125 L16.1256607,13.3984375 L33.0044381,13.3984375 Z M37.8977389,24.8828125 C39.1455162,24.8828125 40.2098307,25.6827949 40.6048932,26.796875 L37.8020357,26.796875 L37.8020357,24.8828125 L37.8977389,24.8828125 Z M40.0445514,39.8467617 C39.4636334,40.1123379 38.8753463,40.3648984 38.2810299,40.6029121 L34.0826295,28.7109375 L36.1650338,28.7109375 L40.0445514,39.8467617 Z M31.7727389,22.96875 L18.9169381,22.96875 L17.2421334,17.2265625 L31.7727389,17.2265625 L31.7727389,22.96875 Z M45.6146646,39.0047656 C46.060067,38.7216758 46.6530436,38.853459 46.9361334,39.2980957 C47.2193189,39.743498 47.0870572,40.3368574 46.6414635,40.6204258 C40.1822682,44.7293438 32.1117193,47.0859375 24.4993014,47.0859375 C16.8874576,47.0859375 8.81700449,44.7293438 2.35742637,40.6206172 C1.91164121,40.3367617 1.77928379,39.743498 2.06227793,39.2985742 C2.34555918,38.8535547 2.93853574,38.7217715 3.3843209,39.0050527 C8.38988145,42.1824922 14.6517369,44.4296016 20.5755689,45.0481309 C21.1009791,45.1013418 21.5718385,44.7214004 21.6267721,44.1956074 C21.6817057,43.6699102 21.2999459,43.1993379 20.7742486,43.1444043 C18.6220768,42.9197891 16.4076979,42.4659648 14.2203072,41.8161406 L18.8475533,28.7109375 L32.0527662,28.7109375 L36.4873619,41.2720684 C33.7518795,42.2200078 30.938399,42.8656211 28.2258854,43.1442129 C27.7000924,43.1980938 27.3176627,43.6681875 27.3716393,44.1939805 C27.4256158,44.7198691 27.8964752,45.1022031 28.4214068,45.0482266 C34.2630299,44.4480723 40.5309146,42.2371387 45.6146646,39.0047656 L45.6146646,39.0047656 Z M4.41064121,37.3893926 C3.0751998,36.5405059 1.29722715,36.9359512 0.447383398,38.2712012 C-0.401886133,39.6067383 -0.00605800781,41.3850938 1.32986191,42.2355117 C8.0885123,46.5344004 16.5334518,49 24.4993014,49 C32.4658209,49 40.9107604,46.5344004 47.6690279,42.2352246 C49.0047564,41.384998 49.4004889,39.6066426 48.5510279,38.270627 C47.7013756,36.9360469 45.9235943,36.5405059 44.5877701,37.3893926 C43.6859596,37.96275 42.7458678,38.5018457 41.7775436,39.0034258 L38.1919303,28.7109375 L41.7258639,28.7109375 C42.2544322,28.7109375 42.6828951,28.2823789 42.6828951,27.7539063 C42.6828951,25.1153711 40.536274,22.96875 37.8977389,22.96875 L37.8020357,22.96875 L37.8020357,16.2695313 C37.8020357,13.6309961 35.6498639,11.484375 33.0044381,11.484375 L15.5673287,11.484375 L13.2226021,3.4452168 C12.630774,1.41678906 10.7417857,0 8.62885215,0 L5.35867637,0 C5.05835996,0 4.77546152,0.140970703 4.59467832,0.380802734 C4.41379941,0.620539062 4.35599473,0.931287109 4.43849082,1.22002344 L11.6983385,26.6275762 C11.8936686,27.3132891 12.3257682,27.881957 12.8999869,28.2518496 L8.84370566,39.7924023 C7.29781309,39.0811367 5.80771543,38.2762734 4.41064121,37.3893926 L4.41064121,37.3893926 Z" id="Fill-3"></path>
                    </g>
                </g>
            </g>
        </g>
    </g>
</svg>