<?xml version="1.0" encoding="UTF-8"?>
<svg width="49px" height="42px" viewBox="0 0 49 42" version="1.1" xmlns="http://www.w3.org/2000/svg" xmlns:xlink="http://www.w3.org/1999/xlink">
    <!-- Generator: Sketch 60.1 (88133) - https://sketch.com -->
    <title>tax-ico</title>
    <desc>Created with Sketch.</desc>
    <g id="✏️-UI-Velocity-Club" stroke="none" stroke-width="1" fill="none" fill-rule="evenodd">
        <g id="02-Velocity-Club-product_Desktop" transform="translate(-797.000000, -4000.000000)">
            <g id="tax-ico" transform="translate(797.000000, 3996.000000)">
                <rect id="bg" x="0" y="0" width="49" height="49"></rect>
                <g id="Group-3" transform="translate(0.000000, 4.000000)" fill="#E01F26">
                    <g id="Group-2">
                        <path d="M9.22808615,6.35342006 C10.8509759,6.60474198 12.1361186,7.87021953 12.3948124,9.46862314 C11.269212,9.9117384 10.2065862,10.4845712 9.22808615,11.1713669 L9.22808615,6.35342006 Z M48.025077,20.5489574 C46.9106741,19.4504618 45.0975205,19.4504618 43.9831176,20.5489574 C43.609385,20.9173553 43.609385,21.5147166 43.9831176,21.8832089 C44.3567546,22.2516068 44.9627661,22.2516068 45.3366902,21.8832089 C45.7046805,21.5202827 46.3037055,21.520377 46.6717915,21.8832089 C47.2252604,22.4286831 47.2252604,23.3162344 46.6717915,23.8618029 C46.2915508,24.2367103 45.785935,24.4431264 45.2480663,24.4431264 C44.7102932,24.4431264 44.2046774,24.2367103 43.8244368,23.8618029 C43.8238625,23.8613312 43.8231926,23.8606708 43.8224269,23.8601048 C43.8291264,23.6787832 43.8335289,23.4971786 43.8335289,23.3148193 C43.8335289,17.4737545 40.3446556,12.1416544 34.9453911,9.73069983 C34.463989,9.51579317 33.8967384,9.7261715 33.6788154,10.200702 C33.460701,10.6753268 33.6742215,11.234386 34.1555279,11.4492927 C38.8719288,13.5552458 41.9194051,18.2127202 41.9194051,23.3147249 C41.9194051,27.7631417 39.6505943,31.858538 35.8503888,34.2698699 C35.5767648,34.44355 35.4113845,34.7423249 35.4113845,35.0631755 L35.4113845,39.5471585 C35.4113845,39.8593297 35.1538391,40.1131988 34.8371474,40.1131988 L30.2432505,40.1131988 C29.9265587,40.1131988 29.6690133,39.8593297 29.6690133,39.5471585 L29.6690133,37.688848 C29.6690133,36.9415804 29.0522827,36.3337474 28.294194,36.3337474 L18.4105205,36.3337474 C17.6524318,36.3337474 17.0357011,36.9415804 17.0357011,37.688848 L17.0357011,39.5471585 C17.0357011,39.8593297 16.7781557,40.1131988 16.461464,40.1131988 L11.8675671,40.1131988 C11.5508753,40.1131988 11.2933299,39.8593297 11.2933299,39.5471585 L11.2933299,35.0631755 C11.2933299,34.7424193 11.1279496,34.44355 10.8543257,34.2700586 C8.11588457,32.5323147 6.13084256,29.8788119 5.2649887,26.7983259 C5.13722094,26.3436068 4.68826322,26.0516244 4.21375195,26.1153982 C4.16551604,26.1218134 4.1185243,26.1318134 4.07296815,26.1449267 L3.15533724,26.1449267 C2.47094231,26.1449267 1.91412372,25.5960562 1.91412372,24.9214305 L1.91412372,21.707925 C1.91412372,21.0332993 2.47094231,20.4844288 3.15533724,20.4844288 L4.08512284,20.4844288 C4.12685074,20.4959383 4.16972711,20.5046176 4.21365625,20.510561 C4.68816752,20.5746179 5.13702953,20.2825411 5.26489299,19.827822 C6.75312418,14.5372315 11.4841681,10.720044 17.0376152,10.3291932 C17.5648606,10.2921175 17.9617541,9.84070034 17.9241416,9.32098095 C17.8865291,8.80126157 17.4280007,8.41097674 16.9013296,8.44710899 C15.9883883,8.51135457 15.0954496,8.65805336 14.2295,8.87748833 C13.6758397,6.33398601 11.3782213,4.42105263 8.63499492,4.42105263 L8.27102429,4.42105263 C7.74243903,4.42105263 7.31396243,4.84341308 7.31396243,5.36445322 L7.31396243,12.7654308 C5.67585536,14.3747779 4.4017189,16.3581833 3.6450658,18.5978163 L3.15533724,18.5978163 C1.41549449,18.5978163 0,19.9931058 0,21.7081137 L0,24.9216191 C0,26.6366271 1.41549449,28.0320109 3.15533724,28.0320109 L3.64602286,28.0320109 C4.67725701,31.0842891 6.68440714,33.7245844 9.37920622,35.5674231 L9.37920622,39.5471585 C9.37920622,40.8996176 10.4955232,42 11.8675671,42 L16.461464,42 C17.8335079,42 18.9498248,40.8996176 18.9498248,39.5471585 L18.9498248,38.2205486 L27.7547939,38.2205486 L27.7547939,39.5471585 C27.7547939,40.8996176 28.8711109,42 30.2431547,42 L34.8370517,42 C36.2090956,42 37.3254125,40.8996176 37.3254125,39.5471585 L37.3254125,35.5672344 C40.6623044,33.2871295 42.8891959,29.8388117 43.593402,25.9712466 C44.1050473,26.205776 44.6667469,26.3298332 45.2479706,26.3298332 C46.2971018,26.3298332 47.2832583,25.9270955 48.0251727,25.1958657 C49.3249584,23.9147277 49.3249584,21.8301897 48.025077,20.5489574 L48.025077,20.5489574 Z" id="Fill-1"></path>
                        <path d="M10.9732159,17.8461316 C10.8696477,17.7427895 10.7259886,17.6842105 10.5795455,17.6842105 C10.4325455,17.6842105 10.2894432,17.7427895 10.185875,17.8461316 C10.0823068,17.9489211 10.0227273,18.0909474 10.0227273,18.2368421 C10.0227273,18.3821842 10.0823068,18.5247632 10.185875,18.6275526 C10.2894432,18.7303421 10.4331023,18.7894737 10.5795455,18.7894737 C10.7259886,18.7894737 10.8696477,18.7303421 10.9732159,18.6275526 C11.0767841,18.5242105 11.1363636,18.3821842 11.1363636,18.2368421 C11.1363636,18.0915 11.0767841,17.9489211 10.9732159,17.8461316" id="Fill-3"></path>
                        <path d="M32.24177,13.2631579 L18.9855027,13.2631579 C18.3408115,13.2631579 17.8181818,13.7580033 17.8181818,14.3684211 C17.8181818,14.9788388 18.3408115,15.4736842 18.9855027,15.4736842 L32.24177,15.4736842 C32.8864612,15.4736842 33.4090909,14.9788388 33.4090909,14.3684211 C33.4090909,13.7580033 32.8864612,13.2631579 32.24177,13.2631579" id="Fill-5"></path>
                        <path d="M25.6136364,8.96724985 C23.7019658,8.96724985 22.1466175,7.42367352 22.1466175,5.52636095 C22.1466175,3.62904839 23.7019658,2.08538173 25.6136364,2.08538173 C27.5253069,2.08538173 29.0805643,3.62904839 29.0805643,5.52636095 C29.0805643,7.42367352 27.5253069,8.96724985 25.6136364,8.96724985 M25.6136364,0 C22.5433501,0 20.0454545,2.47913461 20.0454545,5.52636095 C20.0454545,8.5735873 22.5433501,11.0526316 25.6136364,11.0526316 C28.6838316,11.0526316 31.1818182,8.5735873 31.1818182,5.52636095 C31.1818182,2.47913461 28.6838316,0 25.6136364,0" id="Fill-7"></path>
                    </g>
                </g>
            </g>
        </g>
    </g>
</svg>